<?xml version="1.0" encoding="utf-8"?>
<!DOCTYPE svg PUBLIC "-//W3C//DTD SVG 1.1//EN" "http://www.w3.org/Graphics/SVG/1.1/DTD/svg11.dtd">
<svg version="1.1" xmlns="http://www.w3.org/2000/svg" xmlns:xlink="http://www.w3.org/1999/xlink"
	 width="100px" height="48px" viewBox="0 0 100 48" enable-background="new 0 0 100 48" xml:space="preserve">
<g>
	<path fill="#888888" d="M16.931,21.355c-0.986,0.31-1.92,0.626-2.868,0.897c-1.037,0.297-2.088,0.562-3.181,0.499
		c-0.293-0.017-0.587-0.124-0.866-0.229c-0.278-0.105-0.316-0.368-0.273-0.624c0.014-0.086,0.128-0.205,0.207-0.215
		c0.073-0.009,0.215,0.095,0.235,0.173c0.116,0.451,0.459,0.601,0.843,0.555c0.9-0.107,1.809-0.211,2.685-0.432
		c1.02-0.257,2.008-0.64,3.014-0.959c0.215-0.068,0.286-0.189,0.311-0.411c0.115-0.992,0.229-1.985,0.388-2.971
		c0.207-1.275,0.517-1.493,1.876-1.608c0.782-0.066,1.574-0.035,2.361-0.015c0.28,0.007,0.372-0.106,0.416-0.347
		c0.315-1.755,0.643-3.508,0.947-5.265c0.176-1.017,0.38-2.035,0.457-3.061c0.114-1.503,0.101-3.011-0.328-4.482
		c-0.151-0.515-0.298-1.032-0.48-1.667c-0.533,0.685-1.008,1.289-1.474,1.9c-0.197,0.259-0.366,0.54-0.565,0.797
		c-0.051,0.067-0.169,0.082-0.256,0.121c-0.01-0.103-0.069-0.242-0.023-0.305c0.592-0.806,1.197-1.602,1.802-2.398
		c0.068-0.089,0.157-0.161,0.225-0.25c0.293-0.385,0.565-0.374,0.805,0.056c0.103,0.185,0.171,0.39,0.241,0.591
		c0.624,1.812,0.825,3.684,0.664,5.582C24,8.392,23.793,9.489,23.603,10.583c-0.306,1.757-0.64,3.509-0.961,5.263
		c-0.006,0.032-0.001,0.066-0.001,0.192c0.604-0.041,1.198-0.086,1.794-0.119c0.106-0.006,0.214,0.041,0.321,0.063
		c-0.046,0.089-0.071,0.207-0.143,0.263c-0.742,0.583-1.501,1.144-2.232,1.74c-0.166,0.135-0.307,0.363-0.357,0.572
		c-0.681,2.853-1.505,5.659-2.641,8.367c-0.051,0.123-0.109,0.258-0.107,0.386c0.02,1.168,0.053,2.336,0.156,3.541
		c0.09-0.102,0.197-0.193,0.267-0.307c1.083-1.774,2.163-3.55,3.234-5.33c0.076-0.126,0.113-0.294,0.113-0.443
		c0.002-0.896,0.638-1.397,1.198-1.941c0.145-0.14,0.272-0.03,0.272,0.129c0.001,0.135-0.068,0.278-0.133,0.403
		c-0.124,0.239-0.251,0.478-0.405,0.698c-0.404,0.575-0.401,1.224-0.342,1.874c0.064,0.704,0.164,1.404,0.258,2.105
		c0.054,0.405,0.2,0.77,0.45,1.107c0.176,0.237,0.361,0.295,0.604,0.182c0.182-0.084,0.37-0.182,0.512-0.319
		c0.863-0.834,1.783-1.624,2.545-2.544c0.571-0.689,0.935-1.55,1.389-2.336c0.101-0.175,0.183-0.362,0.297-0.528
		c0.036-0.052,0.148-0.051,0.226-0.074c0.02,0.085,0.078,0.186,0.051,0.253c-0.073,0.185-0.181,0.357-0.175,0.497
		c0.112,0.177,0.224,0.353,0.336,0.53c-0.009,0.041-0.018,0.083-0.026,0.124c0.172-0.07,0.385-0.099,0.51-0.218
		c0.632-0.605,1.279-1.201,1.847-1.863c0.673-0.784,1.273-1.629,1.898-2.453c0.135-0.178,0.229-0.387,0.367-0.563
		c0.06-0.076,0.194-0.152,0.274-0.135c0.072,0.016,0.137,0.153,0.166,0.249c0.031,0.103,0.042,0.226,0.019,0.331
		c-0.301,1.378-0.202,2.776-0.213,4.168c-0.002,0.236,0,0.471,0,0.784c0.11-0.1,0.171-0.149,0.225-0.205
		c0.914-0.961,1.823-1.927,2.745-2.88c0.153-0.158,0.346-0.292,0.544-0.387c0.405-0.193,0.704-0.114,0.852,0.302
		c0.158,0.447,0.23,0.931,0.291,1.404c0.071,0.555,0.09,1.117,0.383,1.674c0.444-0.486,0.901-0.923,1.283-1.417
		c0.634-0.817,1.458-1.4,2.305-1.95c0.598-0.389,1.278-0.602,2-0.638c0.453-0.023,0.632,0.117,0.769,0.536
		c0.162,0.497,0.076,0.985-0.156,1.405c-0.393,0.712-0.798,1.439-1.324,2.051c-0.649,0.754-1.144,0.603-1.46-0.339
		c-0.075-0.223-0.149-0.45-0.178-0.681c-0.016-0.13,0.047-0.278,0.102-0.405c0.02-0.046,0.148-0.096,0.182-0.074
		c0.063,0.039,0.144,0.148,0.128,0.199c-0.156,0.475,0.124,0.835,0.299,1.318c0.225-0.216,0.45-0.361,0.575-0.566
		c0.393-0.649,0.777-1.307,1.101-1.992c0.12-0.254,0.081-0.593,0.074-0.892c-0.002-0.072-0.178-0.212-0.255-0.2
		c-0.693,0.109-1.322,0.364-1.932,0.734c-1.223,0.743-2.04,1.885-3.01,2.877c-0.094,0.096-0.186,0.197-0.291,0.28
		c-0.413,0.327-0.781,0.243-0.922-0.273c-0.158-0.58-0.235-1.183-0.327-1.78c-0.066-0.429-0.1-0.863-0.159-1.388
		c-0.249,0.174-0.464,0.279-0.619,0.441c-0.988,1.031-1.961,2.076-2.943,3.112c-0.167,0.177-0.183,0.361-0.184,0.605
		c-0.006,1.257-0.038,2.514-0.101,3.769c-0.019,0.38-0.231,0.727-0.645,0.821c-0.392,0.089-0.756-0.018-1.04-0.325
		c-0.083-0.09-0.161-0.186-0.249-0.273c-0.472-0.465-0.621-0.798-0.118-1.703c0.424-0.763,0.915-1.489,1.372-2.234
		c0.05-0.082,0.108-0.183,0.103-0.271c-0.103-1.638-0.141-3.274-0.017-4.946c-0.351,0.457-0.684,0.93-1.058,1.368
		c-0.7,0.818-1.411,1.629-2.147,2.416c-0.264,0.282-0.593,0.501-1.019,0.546c-0.317,0.033-0.577,0.019-0.744-0.325
		c-0.614,1.147-1.319,2.186-2.268,3.035c-0.594,0.531-1.187,1.069-1.831,1.534c-0.244,0.176-0.644,0.249-0.949,0.204
		c-0.504-0.075-0.751-0.543-0.866-0.973c-0.188-0.701-0.267-1.431-0.383-2.15c-0.039-0.241-0.05-0.487-0.084-0.834
		c-0.472,0.765-0.897,1.446-1.314,2.133c-0.571,0.941-1.131,1.889-1.708,2.826c-0.134,0.218-0.328,0.399-0.477,0.609
		c-0.068,0.096-0.074,0.239-0.147,0.33c-0.077,0.098-0.208,0.229-0.3,0.218c-0.095-0.012-0.233-0.17-0.245-0.276
		c-0.042-0.367-0.044-0.74-0.048-1.111c-0.006-0.599-0.002-1.199-0.002-1.798c-0.044-0.004-0.088-0.008-0.132-0.012
		c-0.127,0.293-0.257,0.585-0.379,0.881c-1.709,4.147-3.754,8.136-5.694,12.175c-0.744,1.549-1.494,3.095-2.257,4.634
		c-0.143,0.288-0.348,0.548-0.553,0.798c-0.048,0.059-0.264,0.073-0.307,0.024c-0.068-0.078-0.113-0.255-0.07-0.341
		c0.545-1.081,1.134-2.14,1.662-3.229c1.334-2.747,2.675-5.492,3.953-8.266c1.236-2.681,2.398-5.396,3.586-8.099
		c0.057-0.129,0.089-0.282,0.085-0.423c-0.026-0.967-0.051-1.934-0.105-2.899c-0.02-0.366-0.106-0.731-0.183-1.092
		c-0.036-0.172-0.036-0.404-0.322-0.379c-0.277,0.024-0.546,0.064-0.648,0.379c-0.087,0.266-0.146,0.544-0.254,0.801
		c-0.049,0.117-0.182,0.274-0.284,0.279c-0.208,0.011-0.31-0.148-0.277-0.367c0.088-0.577,0.176-1.154,0.262-1.732
		C16.891,21.68,16.907,21.537,16.931,21.355z M21.925,16.345c-0.732,0-1.414-0.013-2.096,0.005
		c-0.356,0.009-0.712,0.068-1.066,0.114c-0.389,0.05-0.596,0.301-0.652,0.668c-0.176,1.138-0.339,2.278-0.511,3.439
		c0.096-0.014,0.132-0.011,0.161-0.025c1.253-0.61,2.475-1.271,3.555-2.163c0.067-0.056,0.148-0.125,0.168-0.202
		C21.634,17.585,21.772,16.987,21.925,16.345z M19.242,25.638c0.905-2.216,1.497-4.449,2.061-6.713
		c-0.067,0.01-0.092,0.007-0.109,0.018c-1.145,0.663-2.291,1.327-3.434,1.994c-0.072,0.042-0.176,0.11-0.181,0.172
		c-0.025,0.354-0.246,0.743,0.147,1.038c0.764-0.103,1.07,0.085,1.248,0.775c0.031,0.119,0.063,0.24,0.074,0.362
		C19.113,24.042,19.173,24.8,19.242,25.638z M34.431,26.658c-0.034-0.012-0.067-0.024-0.101-0.037
		c-0.357,0.618-0.714,1.237-1.072,1.855c-0.414,0.716-0.381,0.958,0.195,1.564c0.151,0.159,0.319,0.359,0.536,0.223
		c0.167-0.104,0.34-0.315,0.372-0.503C34.535,28.733,34.53,27.695,34.431,26.658z M23.902,16.347c-0.454,0-0.841-0.004-1.228,0.004
		c-0.055,0.001-0.146,0.049-0.156,0.091c-0.09,0.358-0.166,0.72-0.266,1.171C22.839,17.162,23.34,16.778,23.902,16.347z"/>
	<path fill="#888888" d="M59.571,21.335c-0.928,0.631-1.839,1.288-2.789,1.884c-0.767,0.482-1.098,1.106-1.054,2.024
		c0.068,1.388-0.317,2.69-0.996,3.899c-0.07,0.125-0.243,0.261-0.372,0.266c-0.136,0.005-0.301-0.119-0.408-0.23
		c-0.056-0.059-0.06-0.245-0.009-0.317c0.562-0.784,0.812-1.69,0.868-2.616c0.15-2.463,0.243-4.93,0.318-7.397
		c0.018-0.574-0.143-1.152-0.181-1.731c-0.011-0.174,0.113-0.357,0.176-0.536c0.166,0.089,0.438,0.144,0.478,0.272
		c0.169,0.536,0.364,1.093,0.374,1.645c0.028,1.516-0.033,3.033-0.059,4.55c-0.001,0.087,0,0.174,0,0.326
		c0.543-0.406,1.023-0.796,1.534-1.14c0.654-0.441,1.342-0.832,1.994-1.276c0.14-0.095,0.254-0.317,0.269-0.49
		c0.039-0.464,0.014-0.933,0.024-1.4c0.003-0.127,0.01-0.271,0.071-0.374c0.066-0.109,0.203-0.251,0.302-0.246
		c0.126,0.006,0.296,0.12,0.354,0.235c0.077,0.153,0.092,0.352,0.087,0.53c-0.034,1.073-0.034,2.151-0.136,3.218
		c-0.13,1.365-0.349,2.722-0.523,4.084c-0.042,0.325-0.225,0.412-0.517,0.355c-0.228-0.045-0.329-0.173-0.299-0.415
		c0.16-1.299,0.314-2.598,0.468-3.898c0.046-0.384,0.084-0.769,0.126-1.154C59.638,21.38,59.605,21.357,59.571,21.335z"/>
	<path fill="#888888" d="M78.175,24.497c0.729-0.227,1.188-0.712,1.616-1.189c0.485-0.541,0.872-1.169,1.311-1.753
		c0.289-0.385,0.52-0.367,0.676,0.071c0.08,0.223,0.092,0.481,0.086,0.722c-0.017,0.654-0.061,1.308-0.101,2.089
		c0.239-0.172,0.394-0.251,0.504-0.37c0.605-0.651,1.244-1.278,1.47-2.191c0.049-0.196,0.213-0.372,0.353-0.533
		c0.044-0.05,0.204-0.058,0.266-0.017c0.06,0.04,0.11,0.191,0.08,0.253c-0.246,0.52-0.441,1.086-0.789,1.531
		c-0.5,0.638-1.098,1.204-1.693,1.759c-0.146,0.136-0.492,0.215-0.653,0.135c-0.172-0.086-0.313-0.386-0.329-0.603
		c-0.044-0.594-0.015-1.194-0.015-1.798c-0.224,0.269-0.47,0.548-0.699,0.84c-0.513,0.654-1.135,1.17-1.899,1.504
		c-0.609,0.266-1.043,0.017-1.047-0.638c-0.007-1.097,0.126-2.173,0.843-3.067c0.168-0.209,0.435-0.397,0.69-0.463
		c0.292-0.076,0.412,0.158,0.247,0.425c-0.526,0.855-0.965,1.738-0.918,2.782C78.18,24.131,78.175,24.275,78.175,24.497z"/>
	<path fill="#888888" d="M66.102,24.748c-0.229,0.236-0.454,0.475-0.688,0.705c-0.109,0.107-0.224,0.218-0.357,0.29
		c-0.543,0.294-0.877,0.091-0.885-0.525c-0.001-0.112,0-0.224,0-0.433c-0.367,0.432-0.658,0.805-0.982,1.147
		c-0.202,0.213-0.435,0.41-0.686,0.56c-0.381,0.229-0.711,0.072-0.834-0.355c-0.021-0.074-0.051-0.154-0.042-0.227
		c0.124-1.064,0.225-2.132,0.397-3.189c0.071-0.436,0.305-0.842,0.851-0.87c0.432-0.023,1.059,0.391,1.222,0.824
		c0.076,0.202,0.118,0.422,0.142,0.638c0.024,0.217,0.005,0.439,0.005,0.658c0.545,0.046,0.622,0.183,0.743,1.353
		c0.241-0.267,0.445-0.507,0.666-0.731c0.081-0.082,0.201-0.125,0.303-0.186c0.047,0.117,0.093,0.234,0.14,0.351
		C66.095,24.756,66.102,24.748,66.102,24.748z M63.9,24.478c-0.036-0.202-0.077-0.338-0.082-0.475
		c-0.007-0.233,0.021-0.467,0.012-0.699c-0.024-0.571-0.223-0.815-0.854-1.02c-0.421,1.2-0.516,2.436-0.545,3.682
		c0.046,0.021,0.092,0.042,0.138,0.064C63.027,25.495,63.486,24.961,63.9,24.478z"/>
	<path fill="#888888" d="M66.095,24.756c0.139-0.504,0.28-1.008,0.415-1.513c0.04-0.149,0.07-0.302,0.086-0.455
		c0.03-0.279,0.229-0.421,0.447-0.354c0.136,0.042,0.225,0.288,0.297,0.458c0.034,0.08-0.023,0.197-0.039,0.298
		c0.034,0.03,0.068,0.06,0.101,0.09c0.055-0.096,0.088-0.221,0.169-0.284c0.487-0.377,0.983-0.743,1.481-1.107
		c0.269-0.196,0.44-0.084,0.582,0.183c0.254,0.48,0.083,0.964,0.041,1.447c-0.035,0.399-0.114,0.795-0.125,1.194
		c-0.016,0.554,0.239,0.773,0.794,0.733c0.115-0.008,0.231-0.065,0.342-0.054c0.083,0.008,0.202,0.075,0.224,0.142
		c0.019,0.06-0.07,0.224-0.116,0.226c-0.496,0.023-1.009,0.099-1.486,0.004c-0.379-0.076-0.596-0.459-0.562-0.879
		c0.055-0.682,0.141-1.362,0.213-2.043c0.013-0.122,0.02-0.245,0.038-0.486c-0.873,0.616-1.62,1.188-1.949,2.145
		c-0.163,0.476-0.299,0.961-0.45,1.44c-0.087,0.276-0.258,0.363-0.538,0.253c-0.306-0.119-0.266-0.316-0.181-0.566
		c0.097-0.286,0.152-0.587,0.224-0.88C66.102,24.748,66.095,24.756,66.095,24.756z"/>
	<path fill="#888888" d="M88.474,24.14c-0.52,0.299-0.986,0.607-1.486,0.842c-0.427,0.201-0.932,0.487-1.362,0.13
		c-0.428-0.355-0.259-0.907-0.13-1.362c0.134-0.472,0.329-0.938,0.571-1.364c0.47-0.827,1.391-1.213,2.295-0.974
		c0.16,0.042,0.405,0.342,0.371,0.43c-0.137,0.355-0.361,0.679-0.574,1c-0.026,0.039-0.214,0.023-0.273-0.029
		c-0.048-0.042-0.049-0.194-0.012-0.266c0.11-0.215,0.25-0.415,0.395-0.647c-0.533-0.082-0.922,0.071-1.215,0.479
		c-0.502,0.697-0.764,1.448-0.785,2.327c0.113-0.012,0.239,0.009,0.324-0.041c0.618-0.359,1.245-0.707,1.831-1.114
		c0.223-0.155,0.343-0.458,0.514-0.69c0.111-0.15,0.21-0.322,0.353-0.435c0.245-0.194,0.545-0.045,0.539,0.267
		c-0.004,0.198-0.069,0.397-0.125,0.59c-0.069,0.237-0.178,0.464-0.235,0.703c-0.123,0.519,0.046,0.698,0.576,0.636
		c0.116-0.013,0.23-0.072,0.342-0.066c0.082,0.005,0.204,0.067,0.228,0.133c0.026,0.07-0.014,0.211-0.074,0.259
		C89.821,25.519,88.653,25.08,88.474,24.14z"/>
	<path fill="#888888" d="M75.19,24.734c0.253-0.209,0.49-0.411,0.736-0.603c0.102-0.079,0.217-0.161,0.339-0.189
		c0.07-0.016,0.191,0.054,0.239,0.121c0.035,0.05,0.021,0.197-0.025,0.233c-0.378,0.295-0.752,0.6-1.16,0.849
		c-0.334,0.204-0.711,0.32-0.926,0.028c-0.84,0.329-1.604,0.647-2.383,0.925c-0.387,0.138-0.685-0.072-0.739-0.449
		c-0.175-1.226,1.014-3.542,2.094-4.067c0.454-0.221,0.908-0.203,1.332,0.081c0.41,0.274,0.475,0.675,0.384,1.127
		c-0.046,0.228-0.082,0.458-0.122,0.687c-0.01,0.056-0.043,0.15-0.023,0.164C75.344,23.915,75.022,24.346,75.19,24.734z
		 M74.692,23.841c-0.04-0.014-0.08-0.028-0.121-0.042c-0.008-0.181-0.032-0.362-0.021-0.542c0.016-0.261,0.104-0.527,0.07-0.778
		c-0.025-0.183-0.161-0.426-0.315-0.496c-0.147-0.067-0.428-0.008-0.569,0.1c-0.931,0.715-1.196,1.797-1.504,2.848
		c-0.057,0.194-0.057,0.404-0.09,0.658C73.255,25.285,74.161,24.836,74.692,23.841z"/>
	<path fill="#888888" d="M35.332,15.637c-0.161,0.092-0.254,0.188-0.308,0.17c-0.732-0.251-1.308,0.198-1.938,0.408
		c-0.092,0.031-0.209-0.014-0.315-0.023c0.053-0.097,0.084-0.252,0.163-0.283c0.478-0.184,0.964-0.349,1.454-0.5
		c0.156-0.048,0.338-0.072,0.496-0.042C35.015,15.391,35.129,15.509,35.332,15.637z"/>
</g>
</svg>
